<svg height="44" viewBox="0 0 35 44" width="35" xmlns="http://www.w3.org/2000/svg" xmlns:xlink="http://www.w3.org/1999/xlink"><linearGradient id="a" x1="1.048%" x2="99.408%" y1="50%" y2="50%"><stop offset="0" stop-color="#a83279"/><stop offset="1" stop-color="#b04167"/></linearGradient><g fill="none"><path d="m34.9 38.7c0 2.8-2.3 5.1-5.1 5.1h-24.7c-2.8 0-5.1-2.3-5.1-5.1v-33.5c0-2.8 2.3-5.1 5.1-5.1h17.3l.6.2c.2.1.3.2.4.3l10.9 11.1c.2.2.3.4.4.7v.2l.1.5v25.6z" fill="url(#a)"/><path d="m8.8 20.3h17.4v2.8h-17.4zm0 12.9h9.4v2.8h-9.4zm0-6.6h17.4v2.8h-17.4zm14.8-16.3c0 .8.6 1.4 1.4 1.4h4.3l-5.7-5.7z" fill="#fff"/></g></svg>