<svg height="86" viewBox="0 0 86 86" width="86" xmlns="http://www.w3.org/2000/svg" xmlns:xlink="http://www.w3.org/1999/xlink"><defs><linearGradient id="a" x1="50%" x2="50%" y1="-66.708%" y2="100%"><stop offset="0" stop-color="#d38312"/><stop offset="1" stop-color="#a83279"/></linearGradient><circle id="b" cx="43" cy="43" r="43"/><path id="c" d="m66.29 12.931-10.15-12.931-12.97 10.353-8.939-8.036-8.955 9.04-5.233-1.237-16.553 19.343h-3.49v14.333h86.796v-14.333h-2.49l-14.879-17.493-3.136.961z"/><mask id="d" fill="#fff"><use fill="#fff" fill-rule="evenodd" xlink:href="#b"/></mask><mask id="e" fill="#fff"><use fill="#fff" fill-rule="evenodd" xlink:href="#c"/></mask></defs><g fill="none" fill-rule="evenodd"><use fill="url(#a)" xlink:href="#b"/><g fill="#fff" fill-rule="nonzero" mask="url(#d)"><path d="m42.638 69.342c.352.001.68-.18.866-.478l4.075-6.528c.101-.163.155-.35.155-.542l-.073-36.195 4.088.008a1.018 1.018 0 0 0 1.02-1.02l-.006-3.065a1.026 1.026 0 0 0 -1.024-1.024l-6.133-.013-.022-11.604a4.052 4.052 0 0 0 1.016-2.701 4.081 4.081 0 0 0 -1.203-2.893 4.081 4.081 0 0 0 -2.893-1.204 4.045 4.045 0 0 0 -2.889 1.191 4.045 4.045 0 0 0 -1.191 2.89 4.084 4.084 0 0 0 1.027 2.701l.013 6.498.001.001.008 4.087.001 1.02-6.132-.01a1.018 1.018 0 0 0 -1.02 1.02l.007 3.065c0 .565.46 1.024 1.024 1.024l4.088.01.072 36.194c0 .19.055.38.157.542l4.102 6.543c.186.301.515.482.866.483zm-1.13-53.552 2.04-2.04.003 1.198-2.04 2.04-.002-1.198zm1.012-5.53c.35 0 .693-.043 1.022-.127l.001.727-2.04 2.04-.005-2.772c.327.085.67.13 1.022.132zm-2.052-4.092a2.022 2.022 0 0 1 .596-1.445 2.023 2.023 0 0 1 1.444-.595c.545 0 1.06.214 1.447.6.387.388.599.901.6 1.447.002.546-.21 1.06-.595 1.444a2.022 2.022 0 0 1 -1.444.596 2.054 2.054 0 0 1 -2.048-2.047zm1.05 13.711 2.04-2.04.005 2.643-2.045-.005zm-7.15 2.627 6.133.013 10.22.02.002 1.023-4.088-.009-8.176-.016-4.089-.009zm5.188 38.979-.072-35.902 2.045.005.05 25.161c.001.564.46 1.022 1.023 1.024.566 0 1.023-.457 1.021-1.02l-.05-25.162 2.043.004.072 35.903-3.056 4.895z"/><path d="m43.237 6.896a1.022 1.022 0 0 0 -.004-1.446c-.4-.4-1.047-.402-1.445-.003a1.023 1.023 0 0 0 .003 1.446c.4.4 1.047.401 1.446.003z"/></g><g mask="url(#d)"><g transform="translate(-.796 44.687)"><use fill="#fff" xlink:href="#c"/><path d="m49.358 5.645 3.142 2.433 2.59-2.115 2.186 1.642 1.857-1.642 2.453.613-5.156-6.609zm-23.862 5.632 4.572-1.625 2.616 2.788 3.203-2.97 2.98 1.964 2.713-2.814-7.082-6.393z" fill="#f1e1e6" mask="url(#e)"/></g></g></g></svg>