<svg enable-background="new 0 0 250.822 219.412" height="219.412" viewBox="0 0 250.822 219.412" width="250.822" xmlns="http://www.w3.org/2000/svg"><path d="m125.41 2.373c-59.278 0-107.333 48.055-107.333 107.333s48.055 107.333 107.333 107.333c59.28 0 107.335-48.055 107.335-107.333s-48.055-107.333-107.335-107.333zm-76.954 93.131c-3.487-3.487-3.487-9.141.001-12.628 19.521-19.521 45.458-30.272 73.031-30.272 27.574 0 53.509 10.751 73.031 30.272 3.486 3.487 3.486 9.141 0 12.628-1.744 1.744-4.029 2.615-6.314 2.615s-4.57-.871-6.316-2.615c-16.146-16.148-37.596-25.041-60.4-25.041-22.803 0-44.254 8.893-60.403 25.041-3.488 3.487-9.142 3.488-12.63 0zm17.95 22.008c-3.312-3.313-3.312-8.684.001-11.996 14.722-14.723 34.284-22.831 55.081-22.831s40.357 8.108 55.08 22.831c1.836 1.835 2.648 4.301 2.451 6.699l-3.057 3.058-12.457-12.458c-2.277-2.277-5.305-3.53-8.523-3.53-3.221 0-6.248 1.254-8.525 3.53-.506.507-.955 1.051-1.355 1.619-22.144-9.278-48.696-4.921-66.698 13.078-3.313 3.313-8.685 3.313-11.998 0zm55.082 49.297c-7.521 0-13.618-6.098-13.618-13.618 0-7.521 6.096-13.617 13.618-13.617 7.521 0 13.617 6.096 13.617 13.617-.001 7.52-6.096 13.618-13.617 13.618zm-22.899-28.628c-3.138 3.139-8.227 3.141-11.366 0-3.139-3.138-3.139-8.227 0-11.364 15.857-15.858 40.061-18.403 58.6-7.641.203.234.41.466.633.687l11.57 11.571c.076.572.094 1.151.047 1.728l-7.342 7.343c-.221.019-.441.031-.662.031-2.057 0-4.113-.785-5.682-2.354-12.628-12.628-33.173-12.627-45.798-.001zm104.037 20.357c-1.568 1.569-3.625 2.354-5.682 2.354-2.059 0-4.113-.785-5.684-2.354l-15.299-15.299-15.299 15.299c-1.57 1.569-3.625 2.354-5.682 2.354s-4.113-.785-5.684-2.354c-3.137-3.139-3.139-8.228 0-11.364l15.299-15.3-15.299-15.299c-3.139-3.139-3.137-8.227 0-11.366 3.139-3.137 8.227-3.139 11.365 0l15.299 15.3 15.299-15.299c3.139-3.138 8.227-3.14 11.365 0 3.139 3.139 3.139 8.228 0 11.365l-15.299 15.299 15.299 15.299c3.14 3.138 3.14 8.226.002 11.365z" fill="#d0525d"/></svg>